<?xml version="1.0" encoding="utf-8"?>
<svg viewBox="529.9669 242.9525 15.2511 17.0545" xmlns="http://www.w3.org/2000/svg">
  <g transform="matrix(1, 0, 0, 1, 5.684341886080802e-14, 2.842170943040401e-14)">
    <g transform="matrix(0.085146, 0, 0, 0.085875, 533.125862, 246.191105)" style="">
      <path style="stroke: none; stroke-width: 1; stroke-dasharray: none; stroke-linecap: butt; stroke-dashoffset: 0; stroke-linejoin: miter; stroke-miterlimit: 4; fill: rgb(0, 0, 0); fill-rule: nonzero; opacity: 1;" vector-effect="non-scaling-stroke" d="M 62.926 43.323 L 45.749 27.102 C 45.42 26.777 45.007 26.451 44.597 26.125 C 48.137 19.947 50.112 12.872 50.112 5.306 C 50.112 -18.441 30.513 -37.713 6.463 -37.713 C -17.587 -37.713 -37.101 -18.441 -37.101 5.306 C -37.101 29.052 -17.586 48.406 6.464 48.406 C 13.216 48.406 19.561 46.863 25.242 44.178 C 25.656 44.831 26.149 45.397 26.722 45.969 L 45.464 63.175 C 50.736 68.303 50.976 60.289 56.163 55.161 C 61.434 49.958 68.197 48.445 62.926 43.323 Z M 6.464 31.817 C -8.278 31.817 -20.304 19.945 -20.304 5.306 C -20.304 -9.251 -8.278 -21.124 6.464 -21.124 C 21.287 -21.124 33.312 -9.251 33.312 5.306 C 33.311 19.945 21.287 31.817 6.464 31.817 Z" stroke-linecap="round"/>
    </g>
    <ellipse style="paint-order: stroke; fill-rule: nonzero; stroke: rgb(0, 0, 0);" cx="541.344" cy="254.419" rx="3.874" ry="3.754"/>
  </g>
  <path d="M 540.414 253.262 L 540.216 253.262 L 540.216 252.5 L 539.98 252.574 L 539.98 252.413 L 540.392 252.265 L 540.414 252.265 Z" transform="matrix(7.3882, 0, 0, 6.722497, -3450.330374, -1444.83071)" style="fill: rgb(255, 255, 255);"/>
</svg>