<?xml version="1.0" encoding="utf-8"?>
<svg viewBox="0 0 16 16" fill="currentColor" xmlns="http://www.w3.org/2000/svg">
  <path d="M12.5 16a3.5 3.5 0 1 0 0-7 3.5 3.5 0 0 0 0 7Zm.354-5.854 1.5 1.5a.5.5 0 0 1-.708.708L13 11.707V14.5a.5.5 0 0 1-1 0v-2.793l-.646.647a.5.5 0 0 1-.708-.708l1.5-1.5a.5.5 0 0 1 .708 0ZM11 5a3 3 0 1 1-6 0 3 3 0 0 1 6 0Z" style="fill: rgb(0, 0, 0);" transform="matrix(1, 0, 0, 1, 1.7763568394002505e-15, 0)"/>
  <path d="M2 13c0 1 1 1 1 1h5.256A4.493 4.493 0 0 1 8 12.5a4.49 4.49 0 0 1 1.544-3.393C9.077 9.038 8.564 9 8 9c-5 0-6 3-6 4Z" style="fill: rgb(0, 0, 0);" transform="matrix(1, 0, 0, 1, 1.7763568394002505e-15, 0)"/>
  <g transform="matrix(0.0726270079612732, 0, 0, 0.07317200303077698, 2.724833052230375, 6.503494359604928)" style="">
    <path style="stroke: none; stroke-width: 1; stroke-dasharray: none; stroke-linecap: butt; stroke-dashoffset: 0; stroke-linejoin: miter; stroke-miterlimit: 4; fill: rgb(0,0,0); fill-rule: nonzero; opacity: 1;" vector-effect="non-scaling-stroke" transform=" translate(-50, -50)" d="M 84.464 72.431 L 68.152 56.063 C 67.933 55.843 67.657 55.623000000000005 67.384 55.403000000000006 C 69.745 51.230000000000004 71.062 46.452000000000005 71.062 41.342000000000006 C 71.062 25.303000000000004 57.991 12.287000000000006 41.952 12.287000000000006 C 25.912999999999997 12.287000000000006 12.899 25.303 12.899 41.342 C 12.899 57.379999999999995 25.914 70.451 41.952999999999996 70.451 C 46.455999999999996 70.451 50.687 69.40899999999999 54.476 67.59599999999999 C 54.752 68.03699999999999 55.080999999999996 68.41899999999998 55.463 68.80499999999999 L 71.778 85.11699999999999 C 75.29400000000001 88.57999999999998 81.00500000000001 88.57999999999998 84.464 85.11699999999999 C 87.979 81.603 87.979 75.89 84.464 72.431 z M 41.953 59.247 C 32.121 59.247 24.101000000000003 51.229 24.101000000000003 41.342 C 24.101000000000003 31.509999999999998 32.121 23.491 41.953 23.491 C 51.838 23.491 59.858000000000004 31.509999999999998 59.858000000000004 41.342 C 59.857 51.229 51.838 59.247 41.953 59.247 z" stroke-linecap="round"/>
  </g>
</svg>