<?xml version="1.0" encoding="utf-8"?>
<svg viewBox="529.6473 242.8327 14.2728 14.1673" xmlns="http://www.w3.org/2000/svg" xmlns:xlink="http://www.w3.org/1999/xlink">
  <defs>
    <pattern id="pattern-0-0" patternTransform="matrix(1, 0, 0, 1, 525.917511, 237.497757)" xlink:href="#pattern-0"/>
    <pattern x="0" y="0" width="25" height="25" patternUnits="userSpaceOnUse" viewBox="0 0 100 100" id="pattern-0">
      <rect x="40.459" y="49.155" width="60.145" height="50.362" style="fill: black;"/>
    </pattern>
  </defs>
  <path d="M 540.415 257 C 543.109 257 544.793 254.083 543.446 251.75 C 542.821 250.667 541.665 250 540.415 250 C 537.721 250 536.037 252.917 537.384 255.25 C 538.009 256.333 539.164 257 540.415 257 Z M 540.769 251.146 L 542.269 252.646 C 542.541 252.919 542.417 253.384 542.044 253.484 C 541.872 253.53 541.687 253.48 541.561 253.354 L 540.915 252.707 L 540.915 255.5 C 540.915 255.885 540.498 256.125 540.165 255.933 C 540.01 255.844 539.915 255.679 539.915 255.5 L 539.915 252.707 L 539.269 253.354 C 538.996 253.627 538.531 253.502 538.431 253.13 C 538.385 252.957 538.434 252.772 538.561 252.646 L 540.061 251.146 C 540.256 250.95 540.573 250.95 540.769 251.146 Z M 538.915 246 C 538.915 248.309 536.415 249.753 534.415 248.598 C 533.487 248.062 532.915 247.072 532.915 246 C 532.915 243.691 535.415 242.247 537.415 243.402 C 538.343 243.938 538.915 244.928 538.915 246 Z" style="paint-order: fill; fill-rule: nonzero; fill: url(#pattern-0-0);" transform="matrix(1, 0, 0, 1, -5.684341886080802e-14, -2.842170943040401e-14)"/>
  <g transform="matrix(0.08514600992202759, 0, 0, 0.085875004529953, 532.8062823534947, 246.0712622116693)" style="">
    <path style="stroke: none; stroke-width: 1; stroke-dasharray: none; stroke-linecap: butt; stroke-dashoffset: 0; stroke-linejoin: miter; stroke-miterlimit: 4; fill: rgb(0, 0, 0); fill-rule: nonzero; opacity: 1;" vector-effect="non-scaling-stroke" d="M 62.926 43.323 L 45.749 27.102 C 45.42 26.777 45.007 26.451 44.597 26.125 C 48.137 19.947 50.112 12.872 50.112 5.306 C 50.112 -18.441 30.513 -37.713 6.463 -37.713 C -17.587 -37.713 -37.101 -18.441 -37.101 5.306 C -37.101 29.052 -17.586 48.406 6.464 48.406 C 13.216 48.406 19.561 46.863 25.242 44.178 C 25.656 44.831 26.149 45.397 26.722 45.969 L 45.464 63.175 C 50.736 68.303 50.976 60.289 56.163 55.161 C 61.434 49.958 68.197 48.445 62.926 43.323 Z M 6.464 31.817 C -8.278 31.817 -20.304 19.945 -20.304 5.306 C -20.304 -9.251 -8.278 -21.124 6.464 -21.124 C 21.287 -21.124 33.312 -9.251 33.312 5.306 C 33.311 19.945 21.287 31.817 6.464 31.817 Z" stroke-linecap="round"/>
  </g>
</svg>